<svg width="122" height="24" viewBox="0 0 122 24" fill="none" xmlns="http://www.w3.org/2000/svg">
<path d="M16.5889 0.206986H21.0638V0.858991C20.2036 0.941785 19.5995 1.15912 19.2615 1.50065C18.9134 1.84217 18.7393 2.31824 18.7393 2.94955V16.2484C18.7393 16.89 18.9031 17.3868 19.2411 17.7387C19.579 18.0906 20.1831 18.3079 21.0433 18.3907V19.0427H14.1927V18.3907C15.0426 18.3079 15.6366 18.0906 15.9847 17.749C16.3329 17.4075 16.4967 16.9107 16.4967 16.2484V3.60155L10.6087 19.0427H9.18533L3.35874 3.54981V16.2484C3.35874 16.89 3.52258 17.3868 3.84002 17.7387C4.15746 18.0906 4.74114 18.3079 5.58083 18.3907V19.0427H0V18.3907C0.849924 18.3079 1.43361 18.0906 1.77153 17.7387C2.10945 17.3868 2.28353 16.9004 2.28353 16.2794V3.15653C2.28353 2.41138 2.11969 1.86287 1.79201 1.511C1.46433 1.15912 0.860165 0.941785 0 0.858991V0.206986H4.54658L10.5677 16.1863L16.5889 0.206986ZM32.3176 18.2975C32.0616 18.6701 31.7749 18.9185 31.437 19.053C31.099 19.1876 30.7918 19.2497 30.5154 19.2497C30.2082 19.2497 29.901 19.1772 29.6142 19.0427C29.3275 18.9081 29.0818 18.6805 28.8872 18.37C28.6926 18.0492 28.6005 17.6248 28.6005 17.0867V16.3726C28.4571 16.8176 28.3547 17.304 28.1397 17.6352C27.7915 18.1734 27.3717 18.577 26.8699 18.8461C26.3681 19.1151 25.8357 19.2497 25.2417 19.2497C24.6478 19.2497 24.1358 19.1151 23.6443 18.8564C23.1425 18.5977 22.7432 18.2147 22.4257 17.718C22.1185 17.2212 21.9649 16.621 21.9649 15.9069C21.9649 15.2652 22.0878 14.696 22.3438 14.2199C22.5896 13.7439 22.9889 13.3092 23.5419 12.9263C24.0948 12.5433 24.8321 12.1708 25.764 11.8085L27.6584 11.1048C28.0168 10.9702 28.2625 10.7529 28.4059 10.4838C28.539 10.2044 28.6107 9.88357 28.6107 9.511V9.4903C28.6107 8.56921 28.4059 7.85511 28.0065 7.35834C27.5969 6.86158 27.0337 6.61319 26.3169 6.61319C25.6001 6.61319 25.0984 6.79948 24.7297 7.18241C24.3611 7.56533 24.1768 7.98965 24.1768 8.46572C24.1768 8.6727 24.2075 8.84864 24.2587 9.00388C24.3099 9.14877 24.3304 9.33506 24.3304 9.54204C24.3304 9.85252 24.228 10.1113 24.0129 10.3079C23.7979 10.5045 23.5419 10.608 23.2552 10.608C22.948 10.608 22.6817 10.4942 22.4769 10.2665C22.2619 10.0388 22.1595 9.74903 22.1595 9.37646C22.1595 8.74515 22.354 8.16559 22.7432 7.60673C23.1323 7.05821 23.6545 6.62354 24.3099 6.30272C24.9653 5.98189 25.723 5.8163 26.5832 5.8163C27.4433 5.8163 28.1192 5.97154 28.7336 6.28202C29.3378 6.60285 29.8088 7.05821 30.157 7.65847C30.4949 8.25873 30.669 8.99353 30.669 9.86287V16.9418C30.669 17.2523 30.7406 17.4903 30.8635 17.6352C30.9966 17.7801 31.14 17.8525 31.3141 17.8525C31.4984 17.8525 31.6725 17.7594 31.8261 17.5731C31.9797 17.3972 32.0821 17.097 32.1435 16.6934H32.8091C32.7375 17.3765 32.5839 17.9043 32.3381 18.2768L32.3176 18.2975ZM28.6107 11.5912L26.5422 12.4295C25.8357 12.7296 25.252 13.1125 24.7809 13.5783C24.3099 14.0543 24.0846 14.696 24.0846 15.5136C24.0846 16.0207 24.1665 16.445 24.3611 16.7969C24.5454 17.1488 24.7707 17.4075 25.0677 17.5834C25.3544 17.7594 25.6821 17.8422 26.02 17.8422C26.4705 17.8422 26.8904 17.6973 27.2795 17.4075C27.6686 17.1177 27.9861 16.7348 28.2421 16.2484C28.4878 15.762 28.6107 15.2031 28.6107 14.5718V11.5912ZM32.6965 6.78913V7.44114H33.4645C33.8127 7.44114 34.0482 7.52393 34.2018 7.69987C34.3451 7.87581 34.4271 8.14489 34.4271 8.50712V19.5809C34.4271 20.7089 34.212 21.5783 33.8024 22.1889C33.3928 22.7995 32.8091 23.1721 32.0411 23.3169V24C32.8911 23.969 33.6386 23.7827 34.3042 23.4515C34.9698 23.1203 35.492 22.6235 35.8812 21.9612C36.26 21.2988 36.4648 20.4709 36.4648 19.4774V5.95084H35.8197L32.6965 6.78913ZM35.3794 0.672704C35.1234 0.672704 34.8776 0.734799 34.6523 0.86934C34.4271 1.00388 34.253 1.17982 34.1403 1.3868C34.0175 1.60414 33.956 1.85252 33.956 2.13195C33.956 2.53558 34.0891 2.8771 34.3554 3.16688C34.6216 3.45666 34.9595 3.60155 35.3794 3.60155C35.6559 3.60155 35.9016 3.53946 36.1167 3.40492C36.3317 3.27037 36.4956 3.09444 36.6287 2.86675C36.7413 2.63907 36.813 2.40103 36.813 2.13195C36.813 1.72833 36.6799 1.3868 36.4034 1.09702C36.1269 0.807244 35.789 0.662354 35.3999 0.662354L35.3794 0.672704ZM48.8758 9.02458C49.3366 10.0285 49.5721 11.1876 49.5721 12.5123C49.5721 13.5058 49.4287 14.4166 49.1625 15.2445C48.886 16.0724 48.5071 16.7865 48.0259 17.3868C47.5446 17.9871 46.9609 18.4528 46.2953 18.7736C45.6194 19.0944 44.8822 19.26 44.0732 19.26C42.9877 19.26 42.0354 18.9702 41.206 18.401C40.3765 17.8215 39.7314 17.0349 39.2501 16.0207C38.7791 15.0065 38.5436 13.8473 38.5436 12.5226C38.5436 11.5498 38.6767 10.6494 38.9429 9.83182C39.2092 9.01423 39.588 8.30013 40.0796 7.69987C40.5711 7.09961 41.1445 6.64424 41.8204 6.31307C42.486 5.99224 43.2437 5.82665 44.063 5.82665C45.1484 5.82665 46.111 6.10608 46.9302 6.67529C47.7596 7.2445 48.4047 8.0207 48.8758 9.02458ZM47.2988 12.5123C47.2988 11.3325 47.1657 10.2975 46.8994 9.41785C46.6332 8.53816 46.2543 7.85511 45.773 7.37904C45.2918 6.90298 44.7183 6.66494 44.063 6.66494C43.6533 6.66494 43.2745 6.75809 42.9468 6.94437C42.6089 7.13066 42.3119 7.38939 42.0457 7.73092C41.7897 8.07244 41.5644 8.47607 41.3801 8.96248C41.1855 9.43855 41.0421 9.97671 40.95 10.577C40.8476 11.1772 40.8066 11.8292 40.8066 12.5226C40.8066 13.6921 40.9397 14.7167 41.206 15.6067C41.4722 16.4968 41.8409 17.1798 42.3221 17.6766C42.8034 18.1733 43.3871 18.4217 44.0527 18.4217C44.4521 18.4217 44.8105 18.3286 45.1382 18.1527C45.4658 17.9664 45.7628 17.7076 46.029 17.3765C46.2953 17.0453 46.5206 16.6313 46.7151 16.1449C46.8994 15.6585 47.0428 15.11 47.1452 14.4994C47.2374 13.8887 47.2886 13.2264 47.2886 12.5123H47.2988ZM57.0883 5.82665C56.5149 5.82665 55.9721 6.06468 55.4601 6.5304C54.9481 7.00647 54.559 7.68952 54.2928 8.60026V5.96119H53.6784L50.5449 6.79948V7.45149H51.3027C51.6406 7.45149 51.8966 7.53428 52.0502 7.71022C52.2038 7.88616 52.2755 8.15524 52.2755 8.51746V16.7451C52.2755 17.2523 52.1628 17.6248 51.9171 17.8836C51.6713 18.132 51.2412 18.3079 50.6268 18.3907V19.0427H56.392V18.3907C55.6854 18.3079 55.1632 18.1527 54.815 17.9353C54.4668 17.718 54.2928 17.3144 54.2928 16.7451V11.1048C54.2928 10.4838 54.3747 9.88357 54.5488 9.31436C54.7228 8.74515 54.9584 8.27943 55.2553 7.91721C55.5625 7.55498 55.8697 7.36869 56.1974 7.36869C56.3817 7.36869 56.5251 7.42044 56.6275 7.52393C56.7197 7.62743 56.8221 7.74127 56.9245 7.86546C56.9961 8 57.0985 8.11384 57.2317 8.20699C57.3648 8.28978 57.5389 8.34153 57.7437 8.34153C57.9997 8.34153 58.2352 8.23803 58.44 8.0414C58.655 7.84476 58.7472 7.57568 58.7472 7.2445C58.7472 6.88228 58.6038 6.5511 58.2966 6.26132C57.9894 5.97154 57.5901 5.82665 57.0678 5.82665H57.0883ZM81.6849 0.206986H76.9643V0.858991C77.5684 0.858991 77.9985 0.941785 78.2647 1.10737C78.531 1.27296 78.6641 1.52135 78.6743 1.86287C78.6743 2.2044 78.6027 2.67012 78.4491 3.26003L74.8958 15.8551L71.322 3.26003C71.1274 2.64942 71.0455 2.17335 71.066 1.83182C71.0865 1.4903 71.2298 1.24191 71.5165 1.08668C71.8033 0.931436 72.2333 0.848642 72.817 0.848642V0.206986H68.168V0.858991L69.0077 3.6533L65.5363 15.8758L61.9114 3.26003C61.7782 2.72186 61.7168 2.27684 61.7168 1.91462C61.7168 1.56274 61.8602 1.29366 62.1469 1.11772C62.4234 0.941785 62.8739 0.858991 63.5191 0.858991V0.206986H57.5184V0.858991C57.9997 0.879689 58.399 1.09702 58.7165 1.52135C59.0339 1.94567 59.3309 2.60802 59.6176 3.49806L64.2461 19.0427H65.6387L69.5812 5.53687L73.6362 19.0427H75.0289L79.5038 3.52911C79.8007 2.53558 80.1182 1.85252 80.4766 1.4696C80.8247 1.08668 81.2344 0.890039 81.7054 0.86934V0.206986H81.6849ZM90.9112 9.02458C91.372 10.0285 91.6075 11.1876 91.6075 12.5123C91.6075 13.5058 91.4642 14.4166 91.1979 15.2445C90.9214 16.0724 90.5426 16.7865 90.0613 17.3868C89.58 17.9871 88.9963 18.4528 88.3307 18.7736C87.6549 19.0944 86.9176 19.26 86.1086 19.26C85.0232 19.26 84.0708 18.9702 83.2414 18.401C82.412 17.8215 81.7668 17.0349 81.2855 16.0207C80.8043 15.0065 80.579 13.8473 80.579 12.5226C80.579 11.5498 80.7121 10.6494 80.9783 9.83182C81.2446 9.01423 81.6235 8.30013 82.115 7.69987C82.6065 7.09961 83.18 6.64424 83.8558 6.31307C84.5214 5.99224 85.2792 5.82665 86.0984 5.82665C87.1838 5.82665 88.1464 6.10608 88.9656 6.67529C89.795 7.2445 90.4402 8.0207 90.9112 9.02458ZM89.3342 12.5123C89.3342 11.3325 89.2011 10.2975 88.9349 9.41785C88.6686 8.53816 88.2897 7.85511 87.8085 7.37904C87.3272 6.90298 86.7537 6.66494 86.0984 6.66494C85.6888 6.66494 85.3099 6.75809 84.9822 6.94437C84.6443 7.13066 84.3473 7.38939 84.0811 7.73092C83.8251 8.07244 83.5998 8.47607 83.4155 8.96248C83.2209 9.43855 83.0776 9.97671 82.9854 10.577C82.883 11.1772 82.842 11.8292 82.842 12.5226C82.842 13.6921 82.9752 14.7167 83.2414 15.6067C83.5076 16.4968 83.8763 17.1798 84.3576 17.6766C84.8388 18.1733 85.4225 18.4217 86.0881 18.4217C86.4875 18.4217 86.8459 18.3286 87.1736 18.1527C87.5013 17.9664 87.7982 17.7076 88.0645 17.3765C88.3307 17.0453 88.556 16.6313 88.7505 16.1449C88.9349 15.6585 89.0782 15.11 89.1806 14.4994C89.2728 13.8887 89.324 13.2264 89.324 12.5123H89.3342ZM99.134 5.82665C98.5605 5.82665 98.0178 6.06468 97.5058 6.5304C96.9938 7.00647 96.6047 7.68952 96.3384 8.60026V5.96119H95.724L92.5906 6.79948V7.45149H93.3483C93.6863 7.45149 93.9423 7.53428 94.0959 7.71022C94.2495 7.88616 94.3211 8.15524 94.3211 8.51746V16.7451C94.3211 17.2523 94.2085 17.6248 93.9627 17.8836C93.717 18.132 93.2869 18.3079 92.6725 18.3907V19.0427H98.4376V18.3907C97.7311 18.3079 97.2088 18.1527 96.8607 17.9353C96.5125 17.718 96.3384 17.3144 96.3384 16.7451V11.1048C96.3384 10.4838 96.4204 9.88357 96.5944 9.31436C96.7685 8.74515 97.004 8.27943 97.301 7.91721C97.6082 7.55498 97.9154 7.36869 98.2431 7.36869C98.4274 7.36869 98.5708 7.42044 98.6732 7.52393C98.7653 7.62743 98.8677 7.74127 98.9701 7.86546C99.0418 8 99.1442 8.11384 99.2773 8.20699C99.4104 8.28978 99.5845 8.34153 99.7893 8.34153C100.045 8.34153 100.281 8.23803 100.486 8.0414C100.701 7.84476 100.793 7.57568 100.793 7.2445C100.793 6.88228 100.649 6.5511 100.342 6.26132C100.035 5.97154 99.6357 5.82665 99.1135 5.82665H99.134ZM111.494 17.3454C111.197 17.0453 110.89 16.7038 110.582 16.3001L106.138 11.1462L109.241 8.60026C109.968 8.01035 110.582 7.55498 111.105 7.2445C111.617 6.93402 112.139 6.76843 112.682 6.74774V6.04398H107.818V6.74774C108.227 6.74774 108.524 6.80983 108.708 6.93402C108.893 7.05821 108.964 7.21345 108.954 7.39974C108.934 7.59638 108.811 7.79301 108.565 8L104.633 11.467V0H103.988L100.865 0.807244V1.45925H101.612C101.96 1.45925 102.206 1.55239 102.36 1.73868C102.513 1.92497 102.595 2.2044 102.595 2.58732V16.7141C102.595 17.2523 102.462 17.6455 102.216 17.8732C101.97 18.1113 101.51 18.2768 100.834 18.3803V19.0323H106.363V18.3803C105.729 18.2768 105.278 18.1009 105.022 17.8629C104.766 17.6145 104.633 17.2316 104.633 16.7141V12.1294L109.876 19.0323H113.859V18.3803C113.316 18.3286 112.866 18.2147 112.497 18.0388C112.129 17.8629 111.791 17.6352 111.494 17.3351V17.3454ZM120.321 12.3777C119.839 12.0673 119.327 11.7878 118.795 11.5498C118.252 11.3118 117.74 11.0737 117.259 10.8357C116.767 10.5977 116.378 10.3079 116.071 9.97671C115.764 9.64554 115.62 9.20052 115.62 8.64166C115.62 8.0207 115.835 7.52393 116.276 7.15136C116.716 6.78913 117.228 6.60285 117.812 6.60285C118.314 6.60285 118.764 6.72704 119.164 6.98577C119.573 7.23415 119.911 7.59638 120.188 8.07244C120.464 8.53816 120.659 9.12807 120.761 9.82147H121.437L121.232 6.42691C120.956 6.49935 120.669 6.47865 120.382 6.37516C120.085 6.27167 119.737 6.15783 119.327 6.02329C118.928 5.88875 118.426 5.82665 117.843 5.82665C117.402 5.82665 116.941 5.89909 116.481 6.03363C116.01 6.16818 115.59 6.38551 115.211 6.67529C114.832 6.96507 114.525 7.33765 114.289 7.78266C114.064 8.23803 113.941 8.7762 113.941 9.39715C113.941 10.1423 114.084 10.7633 114.392 11.2393C114.699 11.7154 115.088 12.1087 115.569 12.4088C116.051 12.7193 116.563 12.978 117.095 13.1953C117.628 13.4127 118.129 13.6507 118.621 13.8991C119.102 14.1475 119.491 14.458 119.788 14.8202C120.075 15.1824 120.228 15.6481 120.228 16.207C120.228 16.9211 120.003 17.4696 119.563 17.8525C119.123 18.2354 118.559 18.4321 117.873 18.4321C117.054 18.4321 116.337 18.1423 115.743 17.5524C115.149 16.9728 114.699 16.0931 114.392 14.9237H113.716L114.207 18.7322C114.586 18.6287 114.945 18.6184 115.303 18.7115C115.661 18.7943 116.051 18.9081 116.481 19.0323C116.911 19.1669 117.402 19.229 117.955 19.229C118.764 19.229 119.471 19.0737 120.075 18.7736C120.679 18.4735 121.15 18.0388 121.488 17.4799C121.826 16.9211 122 16.238 122 15.4411C122 14.696 121.846 14.0647 121.539 13.5679C121.222 13.0712 120.833 12.6675 120.341 12.357L120.321 12.3777ZM120.259 2.81501H119.501V2.70116C119.655 2.68047 119.727 2.60802 119.727 2.47348V1.24191C119.727 1.17982 119.706 1.11772 119.676 1.08668C119.645 1.04528 119.583 1.02458 119.501 1.02458V0.900388H120.269C120.505 0.900388 120.679 0.941785 120.802 1.03493C120.925 1.12807 120.986 1.24191 120.986 1.39715C120.986 1.56274 120.925 1.68693 120.802 1.76973C120.71 1.83182 120.577 1.85252 120.444 1.87322C120.536 1.88357 120.628 1.89392 120.689 1.92497C120.771 1.96636 120.833 2.05951 120.874 2.2044L120.966 2.52523C120.996 2.59767 121.027 2.63907 121.068 2.67012C121.109 2.70116 121.16 2.71151 121.222 2.72186V2.8357H120.74C120.74 2.8357 120.71 2.78396 120.7 2.76326C120.679 2.73221 120.669 2.69081 120.648 2.62872L120.556 2.23545C120.536 2.1423 120.495 2.06986 120.454 2.02846C120.403 1.98706 120.351 1.95602 120.28 1.94567C120.218 1.93532 120.147 1.92497 120.085 1.92497H120.095H120.044V2.50453C120.044 2.55627 120.065 2.60802 120.095 2.64942C120.126 2.69081 120.188 2.72186 120.269 2.73221V2.84605L120.259 2.81501ZM120.034 1.73868H120.259C120.382 1.72833 120.474 1.69728 120.546 1.63519C120.618 1.57309 120.648 1.4903 120.648 1.3868C120.648 1.28331 120.618 1.21087 120.546 1.14877C120.474 1.08668 120.382 1.05563 120.249 1.05563H120.024V1.73868H120.034ZM118.795 2.8978C118.641 2.60802 118.559 2.28719 118.559 1.92497C118.559 1.65589 118.6 1.39715 118.692 1.16947C118.785 0.941785 118.908 0.734799 119.061 0.558862C119.215 0.382924 119.399 0.248383 119.614 0.155239C119.819 0.0620957 120.044 0.0103493 120.269 0.0103493C120.587 0.0103493 120.874 0.0931436 121.13 0.269081C121.386 0.43467 121.59 0.672704 121.744 0.952135C121.898 1.24191 121.969 1.57309 121.969 1.93532C121.969 2.2044 121.928 2.46313 121.836 2.69081C121.744 2.9185 121.621 3.12549 121.468 3.30142C121.314 3.47736 121.13 3.6119 120.925 3.70505C120.72 3.79819 120.495 3.84994 120.259 3.84994C119.952 3.84994 119.665 3.76714 119.399 3.5912C119.143 3.42561 118.938 3.18758 118.785 2.90815L118.795 2.8978ZM118.846 1.92497C118.846 2.2458 118.908 2.52523 119.041 2.78396C119.164 3.04269 119.338 3.23933 119.553 3.38422C119.768 3.52911 120.013 3.5912 120.269 3.5912C120.525 3.5912 120.781 3.51876 120.996 3.37387C121.212 3.22898 121.386 3.03234 121.508 2.78396C121.631 2.53558 121.693 2.2458 121.693 1.92497C121.693 1.60414 121.631 1.31436 121.508 1.06598C121.386 0.817594 121.212 0.610608 120.996 0.465718C120.781 0.320828 120.536 0.248383 120.269 0.248383C120.003 0.248383 119.768 0.320828 119.553 0.465718C119.338 0.610608 119.164 0.807244 119.041 1.06598C118.918 1.31436 118.846 1.60414 118.846 1.92497Z" fill="black"/>
</svg>
